<mxfile host="app.diagrams.net" agent="Mozilla/5.0 (Windows NT 10.0; Win64; x64) AppleWebKit/537.36 (KHTML, like Gecko) Chrome/132.0.0.0 Safari/537.36" version="26.0.16">
  <diagram name="페이지-1" id="bjWKjtMOd2vdDOPxEl8y">
    <mxGraphModel dx="1434" dy="772" grid="1" gridSize="10" guides="1" tooltips="1" connect="1" arrows="1" fold="1" page="1" pageScale="1" pageWidth="827" pageHeight="1169" math="0" shadow="0">
      <root>
        <mxCell id="0" />
        <mxCell id="1" parent="0" />
        <mxCell id="z89j1UofWkeFYL89iQ2B-1" value="" style="edgeStyle=orthogonalEdgeStyle;rounded=0;orthogonalLoop=1;jettySize=auto;html=1;entryX=-0.055;entryY=0.35;entryDx=0;entryDy=0;entryPerimeter=0;" edge="1" parent="1" target="z89j1UofWkeFYL89iQ2B-6">
          <mxGeometry relative="1" as="geometry">
            <mxPoint x="230.4000000000001" y="190" as="sourcePoint" />
            <mxPoint x="335.5999999999999" y="190" as="targetPoint" />
          </mxGeometry>
        </mxCell>
        <mxCell id="z89j1UofWkeFYL89iQ2B-2" value="get(&quot;name&quot;)" style="edgeLabel;html=1;align=center;verticalAlign=middle;resizable=0;points=[];" vertex="1" connectable="0" parent="z89j1UofWkeFYL89iQ2B-1">
          <mxGeometry x="-0.069" y="1" relative="1" as="geometry">
            <mxPoint as="offset" />
          </mxGeometry>
        </mxCell>
        <mxCell id="z89j1UofWkeFYL89iQ2B-3" value="서버 1" style="image;aspect=fixed;perimeter=ellipsePerimeter;html=1;align=center;shadow=0;dashed=0;spacingTop=3;image=img/lib/active_directory/generic_server.svg;" vertex="1" parent="1">
          <mxGeometry x="180" y="160" width="50.4" height="90" as="geometry" />
        </mxCell>
        <mxCell id="z89j1UofWkeFYL89iQ2B-4" value="" style="edgeStyle=orthogonalEdgeStyle;rounded=0;orthogonalLoop=1;jettySize=auto;html=1;entryX=1;entryY=0.75;entryDx=0;entryDy=0;" edge="1" parent="1" source="z89j1UofWkeFYL89iQ2B-6" target="z89j1UofWkeFYL89iQ2B-3">
          <mxGeometry relative="1" as="geometry">
            <mxPoint x="333.6500000000001" y="204.32999999999993" as="targetPoint" />
            <Array as="points">
              <mxPoint x="390" y="225" />
              <mxPoint x="390" y="225" />
            </Array>
          </mxGeometry>
        </mxCell>
        <mxCell id="z89j1UofWkeFYL89iQ2B-5" value="&quot;john&quot; 반환" style="edgeLabel;html=1;align=center;verticalAlign=middle;resizable=0;points=[];" vertex="1" connectable="0" parent="z89j1UofWkeFYL89iQ2B-4">
          <mxGeometry x="0.1149" y="-3" relative="1" as="geometry">
            <mxPoint as="offset" />
          </mxGeometry>
        </mxCell>
        <mxCell id="z89j1UofWkeFYL89iQ2B-6" value="n1" style="image;aspect=fixed;perimeter=ellipsePerimeter;html=1;align=center;shadow=0;dashed=0;spacingTop=3;image=img/lib/active_directory/database_server.svg;" vertex="1" parent="1">
          <mxGeometry x="450" y="160" width="72.7" height="88.66" as="geometry" />
        </mxCell>
        <mxCell id="z89j1UofWkeFYL89iQ2B-7" value="" style="edgeStyle=orthogonalEdgeStyle;rounded=0;orthogonalLoop=1;jettySize=auto;html=1;endArrow=none;startFill=0;" edge="1" parent="1">
          <mxGeometry relative="1" as="geometry">
            <mxPoint x="486.3499999999999" y="350" as="sourcePoint" />
            <mxPoint x="486" y="280" as="targetPoint" />
          </mxGeometry>
        </mxCell>
        <mxCell id="z89j1UofWkeFYL89iQ2B-8" value="" style="edgeStyle=orthogonalEdgeStyle;rounded=0;orthogonalLoop=1;jettySize=auto;html=1;entryX=-0.055;entryY=0.35;entryDx=0;entryDy=0;entryPerimeter=0;" edge="1" parent="1" target="z89j1UofWkeFYL89iQ2B-13">
          <mxGeometry relative="1" as="geometry">
            <mxPoint x="230.4000000000001" y="390" as="sourcePoint" />
            <mxPoint x="335.5999999999999" y="390" as="targetPoint" />
          </mxGeometry>
        </mxCell>
        <mxCell id="z89j1UofWkeFYL89iQ2B-9" value="get(&quot;name&quot;)" style="edgeLabel;html=1;align=center;verticalAlign=middle;resizable=0;points=[];" vertex="1" connectable="0" parent="z89j1UofWkeFYL89iQ2B-8">
          <mxGeometry x="-0.069" y="1" relative="1" as="geometry">
            <mxPoint as="offset" />
          </mxGeometry>
        </mxCell>
        <mxCell id="z89j1UofWkeFYL89iQ2B-10" value="서버 2" style="image;aspect=fixed;perimeter=ellipsePerimeter;html=1;align=center;shadow=0;dashed=0;spacingTop=3;image=img/lib/active_directory/generic_server.svg;" vertex="1" parent="1">
          <mxGeometry x="180" y="360" width="50.4" height="90" as="geometry" />
        </mxCell>
        <mxCell id="z89j1UofWkeFYL89iQ2B-11" value="" style="edgeStyle=orthogonalEdgeStyle;rounded=0;orthogonalLoop=1;jettySize=auto;html=1;entryX=1;entryY=0.75;entryDx=0;entryDy=0;" edge="1" parent="1" source="z89j1UofWkeFYL89iQ2B-13" target="z89j1UofWkeFYL89iQ2B-10">
          <mxGeometry relative="1" as="geometry">
            <mxPoint x="333.6500000000001" y="404.3299999999999" as="targetPoint" />
            <Array as="points">
              <mxPoint x="390" y="425" />
              <mxPoint x="390" y="425" />
            </Array>
          </mxGeometry>
        </mxCell>
        <mxCell id="z89j1UofWkeFYL89iQ2B-12" value="&quot;john&quot; 반환" style="edgeLabel;html=1;align=center;verticalAlign=middle;resizable=0;points=[];" vertex="1" connectable="0" parent="z89j1UofWkeFYL89iQ2B-11">
          <mxGeometry x="0.1149" y="-3" relative="1" as="geometry">
            <mxPoint as="offset" />
          </mxGeometry>
        </mxCell>
        <mxCell id="z89j1UofWkeFYL89iQ2B-13" value="n2" style="image;aspect=fixed;perimeter=ellipsePerimeter;html=1;align=center;shadow=0;dashed=0;spacingTop=3;image=img/lib/active_directory/database_server.svg;" vertex="1" parent="1">
          <mxGeometry x="450" y="360" width="72.7" height="88.66" as="geometry" />
        </mxCell>
        <mxCell id="z89j1UofWkeFYL89iQ2B-14" value="name: john" style="text;html=1;align=center;verticalAlign=middle;resizable=0;points=[];autosize=1;strokeColor=none;fillColor=none;" vertex="1" parent="1">
          <mxGeometry x="510.00000000000006" y="189.33" width="80" height="30" as="geometry" />
        </mxCell>
        <mxCell id="z89j1UofWkeFYL89iQ2B-15" value="name: john" style="text;html=1;align=center;verticalAlign=middle;resizable=0;points=[];autosize=1;strokeColor=none;fillColor=none;" vertex="1" parent="1">
          <mxGeometry x="510" y="390" width="80" height="30" as="geometry" />
        </mxCell>
      </root>
    </mxGraphModel>
  </diagram>
</mxfile>
